# xmcd
#
# Track frame offsets: 
#        150
#        17592
#        32390
#        46189
#        76525
#        96973
#        114398
#        134348
#        149119
#        180103
#        201965
#        216028
#        233574
#        258174
#        270970
#
# Disc length: 3912 seconds
#
# Revision: 0
# Processed by: cddbd v1.5.2PL0 Copyright (c) Steve Scherf et al.
# Submitted via: ExactAudioCopy v0.95b3
#
DISCID=b70f460f
DTITLE=Cross Canadian Ragweed - Live And Loud At Billy Bob's Texas
DYEAR=2002
DGENRE=Country
TTITLE0=Long Way Home
TTITLE1=42 Miles
TTITLE2=Hey Hey
TTITLE3=On Your Own
TTITLE4=Run To Me
TTITLE5=Look At Me
TTITLE6=Time To Move On
TTITLE7=Crazy Eddie's Last Hurrah
TTITLE8=Mexican Sky
TTITLE9=President Song
TTITLE10=Alright
TTITLE11=Johnny's Song
TTITLE12=Bang My Head
TTITLE13=Carney Man
TTITLE14=Boys From Oklahoma
EXTD=
EXTT0=
EXTT1=
EXTT2=
EXTT3=
EXTT4=
EXTT5=
EXTT6=
EXTT7=
EXTT8=
EXTT9=
EXTT10=
EXTT11=
EXTT12=
EXTT13=
EXTT14=
PLAYORDER=
